<mxfile host="65bd71144e">
    <diagram id="tnYl_wFforemnYsKYBT4" name="Page-1">
        <mxGraphModel dx="498" dy="347" grid="1" gridSize="10" guides="1" tooltips="1" connect="1" arrows="1" fold="1" page="1" pageScale="1" pageWidth="850" pageHeight="1100" math="0" shadow="0">
            <root>
                <mxCell id="0"/>
                <mxCell id="1" parent="0"/>
                <mxCell id="2" value="" style="endArrow=classic;html=1;sketch=1;curveFitting=1;jiggle=2;endFill=1;" edge="1" parent="1">
                    <mxGeometry width="50" height="50" relative="1" as="geometry">
                        <mxPoint x="320" y="280" as="sourcePoint"/>
                        <mxPoint x="560" y="280" as="targetPoint"/>
                    </mxGeometry>
                </mxCell>
                <mxCell id="3" value="" style="curved=1;endArrow=none;html=1;sketch=1;endFill=0;fillColor=#d5e8d4;strokeColor=#82b366;" edge="1" parent="1">
                    <mxGeometry width="50" height="50" relative="1" as="geometry">
                        <mxPoint x="560" y="260" as="sourcePoint"/>
                        <mxPoint x="320" y="40" as="targetPoint"/>
                        <Array as="points">
                            <mxPoint x="460" y="250"/>
                            <mxPoint x="390" y="180"/>
                        </Array>
                    </mxGeometry>
                </mxCell>
                <mxCell id="4" value="" style="endArrow=none;html=1;sketch=1;fillColor=#f8cecc;strokeColor=#b85450;startArrow=none;startFill=0;jumpStyle=sharp;endFill=0;rounded=0;" edge="1" parent="1" source="16">
                    <mxGeometry width="50" height="50" relative="1" as="geometry">
                        <mxPoint x="411" y="242" as="sourcePoint"/>
                        <mxPoint x="330" y="60" as="targetPoint"/>
                        <Array as="points">
                            <mxPoint x="410" y="240"/>
                            <mxPoint x="370" y="180"/>
                        </Array>
                    </mxGeometry>
                </mxCell>
                <mxCell id="6" value="" style="ellipse;whiteSpace=wrap;html=1;aspect=fixed;sketch=1;curveFitting=1;jiggle=2;fillColor=none;strokeColor=#b85450;" vertex="1" parent="1">
                    <mxGeometry x="324" y="53" width="10" height="10" as="geometry"/>
                </mxCell>
                <mxCell id="7" value="" style="ellipse;whiteSpace=wrap;html=1;aspect=fixed;sketch=1;curveFitting=1;jiggle=2;fillColor=none;strokeColor=#b85450;" vertex="1" parent="1">
                    <mxGeometry x="365" y="174" width="10" height="10" as="geometry"/>
                </mxCell>
                <mxCell id="8" value="" style="ellipse;whiteSpace=wrap;html=1;aspect=fixed;sketch=1;curveFitting=1;jiggle=2;fillColor=none;strokeColor=#b85450;" vertex="1" parent="1">
                    <mxGeometry x="406" y="236" width="10" height="10" as="geometry"/>
                </mxCell>
                <mxCell id="9" value="" style="endArrow=none;dashed=1;html=1;dashPattern=1 3;strokeWidth=1;rounded=0;sketch=1;jumpStyle=sharp;fillColor=#f5f5f5;strokeColor=#666666;" edge="1" parent="1">
                    <mxGeometry width="50" height="50" relative="1" as="geometry">
                        <mxPoint x="331" y="268" as="sourcePoint"/>
                        <mxPoint x="330" y="66" as="targetPoint"/>
                    </mxGeometry>
                </mxCell>
                <mxCell id="11" value="" style="endArrow=none;dashed=1;html=1;dashPattern=1 3;strokeWidth=1;rounded=0;sketch=1;jumpStyle=sharp;fillColor=#f5f5f5;strokeColor=#666666;entryX=0.5;entryY=1;entryDx=0;entryDy=0;" edge="1" parent="1" target="7">
                    <mxGeometry width="50" height="50" relative="1" as="geometry">
                        <mxPoint x="370" y="270" as="sourcePoint"/>
                        <mxPoint x="370.5" y="205" as="targetPoint"/>
                    </mxGeometry>
                </mxCell>
                <mxCell id="12" value="" style="endArrow=none;dashed=1;html=1;dashPattern=1 3;strokeWidth=1;rounded=0;sketch=1;jumpStyle=sharp;fillColor=#f5f5f5;strokeColor=#666666;" edge="1" parent="1">
                    <mxGeometry width="50" height="50" relative="1" as="geometry">
                        <mxPoint x="410" y="270" as="sourcePoint"/>
                        <mxPoint x="411.25" y="246" as="targetPoint"/>
                    </mxGeometry>
                </mxCell>
                <mxCell id="13" value="i&lt;sub&gt;0&lt;/sub&gt;" style="text;html=1;align=center;verticalAlign=middle;resizable=0;points=[];autosize=1;strokeColor=none;fillColor=none;fontFamily=Tahoma;" vertex="1" parent="1">
                    <mxGeometry x="319" y="276" width="30" height="30" as="geometry"/>
                </mxCell>
                <mxCell id="14" value="i&lt;sub style=&quot;&quot;&gt;&lt;font style=&quot;font-size: 10px;&quot;&gt;1&lt;/font&gt;&lt;/sub&gt;" style="text;html=1;align=center;verticalAlign=middle;resizable=0;points=[];autosize=1;strokeColor=none;fillColor=none;fontFamily=Tahoma;" vertex="1" parent="1">
                    <mxGeometry x="356" y="276" width="30" height="30" as="geometry"/>
                </mxCell>
                <mxCell id="15" value="i&lt;sub style=&quot;&quot;&gt;&lt;font style=&quot;font-size: 10px;&quot;&gt;2&lt;/font&gt;&lt;/sub&gt;" style="text;html=1;align=center;verticalAlign=middle;resizable=0;points=[];autosize=1;strokeColor=none;fillColor=none;fontFamily=Tahoma;" vertex="1" parent="1">
                    <mxGeometry x="396" y="276" width="30" height="30" as="geometry"/>
                </mxCell>
                <mxCell id="16" value="" style="ellipse;whiteSpace=wrap;html=1;aspect=fixed;sketch=1;curveFitting=1;jiggle=2;fillColor=none;strokeColor=#b85450;" vertex="1" parent="1">
                    <mxGeometry x="446" y="245" width="10" height="10" as="geometry"/>
                </mxCell>
                <mxCell id="17" value="" style="endArrow=none;dashed=1;html=1;dashPattern=1 3;strokeWidth=1;rounded=0;sketch=1;jumpStyle=sharp;fillColor=#f5f5f5;strokeColor=#666666;" edge="1" parent="1">
                    <mxGeometry width="50" height="50" relative="1" as="geometry">
                        <mxPoint x="452" y="269" as="sourcePoint"/>
                        <mxPoint x="451.63" y="255" as="targetPoint"/>
                    </mxGeometry>
                </mxCell>
                <mxCell id="18" value="i&lt;sub style=&quot;&quot;&gt;&lt;font style=&quot;font-size: 10px;&quot;&gt;3&lt;/font&gt;&lt;/sub&gt;" style="text;html=1;align=center;verticalAlign=middle;resizable=0;points=[];autosize=1;strokeColor=none;fillColor=none;fontFamily=Tahoma;" vertex="1" parent="1">
                    <mxGeometry x="436" y="276" width="30" height="30" as="geometry"/>
                </mxCell>
                <mxCell id="21" value="" style="endArrow=classic;html=1;sketch=1;curveFitting=1;jiggle=2;endFill=1;" edge="1" parent="1">
                    <mxGeometry width="50" height="50" relative="1" as="geometry">
                        <mxPoint x="320" y="280" as="sourcePoint"/>
                        <mxPoint x="319" y="20" as="targetPoint"/>
                    </mxGeometry>
                </mxCell>
                <mxCell id="22" value="Schritte i" style="text;html=1;align=center;verticalAlign=middle;resizable=0;points=[];autosize=1;strokeColor=none;fillColor=none;fontSize=10;fontFamily=Tahoma;" vertex="1" parent="1">
                    <mxGeometry x="540" y="275" width="60" height="30" as="geometry"/>
                </mxCell>
                <mxCell id="23" value="q(i)" style="text;html=1;align=center;verticalAlign=middle;resizable=0;points=[];autosize=1;strokeColor=none;fillColor=none;fontSize=10;fontFamily=Tahoma;" vertex="1" parent="1">
                    <mxGeometry x="279" y="23" width="40" height="30" as="geometry"/>
                </mxCell>
                <mxCell id="24" value="(i&lt;sub&gt;0&lt;/sub&gt;, q&lt;sub&gt;0&lt;/sub&gt;)" style="text;html=1;align=center;verticalAlign=middle;resizable=0;points=[];autosize=1;strokeColor=none;fillColor=none;fontSize=10;fontFamily=Tahoma;" vertex="1" parent="1">
                    <mxGeometry x="329" y="36" width="50" height="30" as="geometry"/>
                </mxCell>
                <mxCell id="25" value="(i&lt;sub&gt;1&lt;/sub&gt;, q&lt;sub&gt;1&lt;/sub&gt;)" style="text;html=1;align=center;verticalAlign=middle;resizable=0;points=[];autosize=1;strokeColor=none;fillColor=none;fontSize=10;fontFamily=Tahoma;" vertex="1" parent="1">
                    <mxGeometry x="366" y="164" width="50" height="30" as="geometry"/>
                </mxCell>
                <mxCell id="26" value="(i&lt;span style=&quot;font-size: 8.33333px;&quot;&gt;2&lt;/span&gt;, q&lt;sub&gt;2&lt;/sub&gt;)" style="text;html=1;align=center;verticalAlign=middle;resizable=0;points=[];autosize=1;strokeColor=none;fillColor=none;fontSize=10;fontFamily=Tahoma;" vertex="1" parent="1">
                    <mxGeometry x="400" y="215" width="50" height="30" as="geometry"/>
                </mxCell>
                <mxCell id="30" value="(i&lt;span style=&quot;font-size: 8.33333px;&quot;&gt;3&lt;/span&gt;, q&lt;sub&gt;3&lt;/sub&gt;)" style="text;html=1;align=center;verticalAlign=middle;resizable=0;points=[];autosize=1;strokeColor=none;fillColor=none;fontSize=10;fontFamily=Tahoma;" vertex="1" parent="1">
                    <mxGeometry x="451" y="236" width="50" height="30" as="geometry"/>
                </mxCell>
            </root>
        </mxGraphModel>
    </diagram>
</mxfile>